<svg xmlns="http://www.w3.org/2000/svg" xmlns:xlink="http://www.w3.org/1999/xlink" width="256" height="256" version="1.1" viewBox="0 0 256 256"><title>logo_busd_256x256</title><g id="logo_busd_256x256" fill="none" fill-rule="evenodd" stroke="none" stroke-width="1"><g id="busd-logo" fill-rule="nonzero"><path id="路径" fill="#F0B90B" d="M126.413521,252.835556 C196.229781,252.835556 252.827042,197.024367 252.827042,128.177778 C252.827042,59.3311882 196.229781,3.52 126.413521,3.52 C56.5972612,3.52 0,59.3311882 0,128.177778 C0,197.024367 56.5972612,252.835556 126.413521,252.835556 Z"/><polygon id="矩形" fill="#FFF" points="76.934 70.583 146.183 71.067 146.376 98.674 77.127 98.189" transform="translate(111.654946, 84.628290) rotate(-45.000000) translate(-111.654946, -84.628290)"/><polygon id="矩形" fill="#FFF" points="70.99 114.019 181.63 114.793 181.823 142.399 71.183 141.625" transform="translate(126.406300, 128.208956) rotate(-45.000000) translate(-126.406300, -128.208956)"/><polygon id="矩形" fill="#FFF" points="100.426 143.103 211.067 143.877 211.26 171.483 100.619 170.71" transform="translate(155.843144, 157.293401) rotate(-45.000000) translate(-155.843144, -157.293401)"/><polygon id="矩形" fill="#FFF" points="53.491 114.416 81.097 114.609 81.29 142.216 53.684 142.023" transform="translate(67.390510, 128.315931) rotate(-45.000000) translate(-67.390510, -128.315931)"/></g></g></svg>