<svg xmlns="http://www.w3.org/2000/svg" xmlns:xlink="http://www.w3.org/1999/xlink" width="256" height="256" version="1.1" viewBox="0 0 256 256"><title>logo_dPax_256x256</title><defs><linearGradient id="linearGradient-1" x1="8.638%" x2="100%" y1="18.046%" y2="95.907%"><stop offset="0%" stop-color="#FFF" stop-opacity=".896"/><stop offset="100%" stop-color="#FFF"/></linearGradient></defs><g id="logo_dPax_256x256" fill="none" fill-rule="evenodd" stroke="none" stroke-width="1"><g id="logo11" fill-rule="nonzero" transform="translate(1.000000, 7.000000)"><g id="编组-7"><path id="路径" fill="#E9E223" d="M158.984247,33.6061111 C163.83678,34.9384911 168.375088,37.229673 172.332814,40.3451852 C194.580425,47.0842593 217.050512,61.6335185 237.206848,90.8212963 C238.804578,93.6239184 240.683095,96.2558052 242.813246,98.6761111 C252.869166,71.8983333 251.71229,50.4314815 241.700865,40.3451852 C223.902776,23.5198148 199.207928,32.4903704 170.152548,21.2883333 C146.659071,4.46296296 133.266009,-1.26845037e-13 113.109673,-1.26845037e-13 C100.119245,1.94416368 88.028124,7.81338336 78.4478948,16.8253704 C106.43539,17.0038889 139.984787,28.0274074 158.984247,33.6061111 Z"/><path id="路径" fill="#B2CC3A" d="M39.3365944,78.5035185 C49.3925147,47.2627778 63.9424524,29.1431481 77.3355143,17.9411111 C60.5608155,17.9411111 44.8984972,22.4040741 34.842577,34.7664815 C23.6742762,48.1553704 20.2926393,85.2425926 19.1802588,95.3288889 C16.9554976,104.254815 -2.04396227,142.457778 0.180798845,163.746111 C2.40555996,183.918704 16.9554976,206.367407 60.5608155,211.990741 C61.7176912,200.744074 5.78719685,162.585741 39.3365944,78.5035185 Z"/><path id="路径" fill="#55B14B" d="M33.7746917,130.09537 C37.1118333,80.735 80.7616464,53.8233333 80.7616464,53.8233333 C103.009258,40.4344444 136.692141,30.2588889 171.353919,40.4344444 C167.396193,37.3189322 162.857885,35.0277503 158.005352,33.6953704 C140.207263,28.072037 106.568875,16.87 76.3566194,17.9857407 C63.0080527,29.1877778 49.659486,48.2892593 38.3576996,78.5481481 C5.92068252,163.790741 60.6053107,209.759259 62.9635575,212.03537 L59.5374254,212.03537 C46.1888587,194.005 34.8870722,168.209074 33.7746917,130.09537 Z"/><path id="路径" fill="#1893D2" d="M241.967837,98.6761111 C234.136678,119.964444 217.361979,145.805 190.53136,171.600926 L184.924962,177.224259 C170.375024,195.076111 149.328784,204.002037 127.882087,208.465 C97.6698308,216.319815 70.8392118,210.696481 60.7832916,210.696481 C76.9666391,229.598826 100.639856,240.377038 125.479345,240.152037 C147.726956,237.920556 179.140583,203.154074 198.184538,189.675926 C214.959237,176.287037 280.945651,163.88 241.789856,98.81 L241.967837,98.6761111 Z"/><path id="路径" fill="#00855D" d="M171.309424,40.3451852 C195.915282,57.1705556 218.296378,97.5603704 200.364804,149.152222 C196.749339,159.310181 191.454561,168.785081 184.702486,177.17963 C186.927247,176.063889 188.039627,173.832407 190.308884,171.556296 C212.325456,151.069995 229.908933,126.263316 241.967837,98.6761111 C240.480164,95.8042327 238.592423,93.1594238 236.361439,90.8212963 C217.139503,61.6335185 194.802901,47.0842593 171.309424,40.3451852 Z"/><path id="形状" fill="#035127" d="M171.309424,40.3451852 C140.616115,31.2601489 107.49346,36.1554401 80.7171512,53.7340741 C80.7171512,53.7340741 37.1118333,80.5118519 33.7301964,130.006111 C34.842577,169.280185 46.0108778,193.915741 60.4273298,210.741111 C82.6344825,215.562567 105.686158,214.795946 127.526125,208.50963 C149.773736,204.046667 170.019062,195.120741 185.68138,177.268889 C192.837136,169.155062 198.177643,159.598329 201.343699,149.241481 C219.408759,97.3372222 195.915282,57.1705556 171.309424,40.3451852 Z M137.760026,186.150185 C86.3235492,197.352222 59.4929301,151.383704 57.268169,142.413148 C55.0434079,133.442593 50.6383809,85.197963 89.6606908,61.6335185 C118.716071,44.8081481 160.096628,42.5766667 177.983707,81.8061111 C194.802901,119.964444 188.084122,174.948148 137.760026,186.150185 L137.760026,186.150185 Z"/></g></g><g id="编组" transform="translate(154.000000, 154.000000)"><circle id="椭圆形" cx="51" cy="51" r="51" fill="url(#linearGradient-1)"/><g id="编组-15" transform="translate(20.000000, 16.000000)"><path id="Fill-13" fill="#FA9B00" d="M8.19677659e-13,61.6550927 L8.19677659e-13,14.4471963 L30.5380915,14.4471963 C42.0868829,14.4471963 51.4822362,24.2532333 51.4822362,36.3059799 C51.4822362,48.3589675 42.0868829,58.1650044 30.5380915,58.1650044 L26.8706187,58.1650044 L26.8706187,48.8817215 L30.5380915,48.8817215 C37.1548226,48.8817215 42.5380565,43.2403642 42.5380565,36.3059799 C42.5380565,29.3720776 37.1548226,23.7307202 30.5380915,23.7307202 L8.94393862,23.7307202 L8.94393862,61.6550927 L8.19677659e-13,61.6550927 Z"/><path id="Fill-15" fill="#242A47" d="M13.7143525,73.555279 L13.7143525,29.3376129 L22.6585322,29.3376129 L22.6585322,64.2717551 L33.1186744,64.2717551 C47.6056377,64.2717551 59.3918255,51.93823 59.3918255,36.7776395 C59.3918255,21.61729 47.6056377,9.28328288 33.1186744,9.28328288 L11.8019259,9.28328288 L11.8019259,2.29816166e-14 L33.1186744,2.29816166e-14 C52.537698,2.29816166e-14 68.3362462,16.4984457 68.3362462,36.7773985 C68.3362462,57.0568333 52.537698,73.555279 33.1186744,73.555279 L13.7143525,73.555279 Z"/></g></g></g></svg>